<svg version="1.1" xmlns="http://www.w3.org/2000/svg" viewBox="0 0 877.2142857142858 719.9999999999998" width="877.2142857142858" height="719.9999999999998">
  <!-- svg-source:excalidraw -->
  
  <defs>
    <style class="style-fonts">
      @font-face {
        font-family: "Virgil";
        src: url("https://excalidraw.com/Virgil.woff2");
      }
      @font-face {
        font-family: "Cascadia";
        src: url("https://excalidraw.com/Cascadia.woff2");
      }
    </style>
  </defs>
  <rect x="0" y="0" width="877.2142857142858" height="719.9999999999998" fill="#ffffff"></rect><g stroke-linecap="round" transform="translate(10 55.71428571428561) rotate(0 279.99999999999994 327.14285714285705)"><path d="M32 0 M32 0 C200.66 -1.32, 370.27 -2.06, 528 0 M528 0 C550.66 -0.91, 559.15 11.76, 560 32 M560 32 C561.86 184.8, 561.88 338.42, 560 622.29 M560 622.29 C561.93 644.98, 549.01 654.89, 528 654.29 M528 654.29 C368.19 651.89, 207.82 652.69, 32 654.29 M32 654.29 C12.6 654.8, -0.43 644.38, 0 622.29 M0 622.29 C0.97 406.89, 1.07 192.87, 0 32 M0 32 C0.98 10.4, 11.57 -1.51, 32 0" stroke="#000000" stroke-width="1.5" fill="none" stroke-dasharray="8 9"></path></g><g stroke-linecap="round" transform="translate(58.571428571428555 140.0000000000001) rotate(0 127.5 75.99999999999997)"><path d="M32 0 M32 0 C101.17 1.03, 170.42 1.18, 223 0 M32 0 C96.84 -1.3, 159.76 -0.42, 223 0 M223 0 C245.5 0.71, 254.45 10.22, 255 32 M223 0 C244.4 0.56, 253.4 12.84, 255 32 M255 32 C254.78 66.83, 253.52 99.83, 255 120 M255 32 C256.01 56.78, 254.74 80.7, 255 120 M255 120 C253.47 141.84, 246.33 151.58, 223 152 M255 120 C254.89 141.3, 244.64 152.32, 223 152 M223 152 C172.4 152.77, 117.35 153.54, 32 152 M223 152 C153.96 152.57, 84.99 152.28, 32 152 M32 152 C11.25 151.04, -0.68 141, 0 120 M32 152 C11.71 152.79, 1.06 139.95, 0 120 M0 120 C1.29 99.85, 0.78 81.51, 0 32 M0 120 C0.1 90.69, -1.12 59.3, 0 32 M0 32 C0.71 11.16, 10.19 -1.45, 32 0 M0 32 C1.98 9.71, 10.08 1.3, 32 0" stroke="#000000" stroke-width="1" fill="none"></path></g><g transform="translate(133.771429334368 203.5000000000001) rotate(0 52.29999923706055 12.499999999999972)"><text x="52.29999923706055" y="0" font-family="Virgil, Segoe UI Emoji" font-size="20px" fill="#000000" text-anchor="middle" style="white-space: pre;" direction="ltr" dominant-baseline="text-before-edge">Portserver</text></g><g stroke-linecap="round" transform="translate(67.14285714285734 484.14285714285705) rotate(0 89 76.5)"><path d="M81.5 1.2 C92.76 -0.84, 107.16 1.14, 118.39 4.43 C129.63 7.73, 140.15 14.06, 148.91 20.96 C157.67 27.86, 166.22 36.3, 170.95 45.82 C175.67 55.34, 177.62 67.65, 177.26 78.09 C176.91 88.53, 173.91 99.16, 168.82 108.48 C163.73 117.79, 155.74 127.12, 146.71 133.99 C137.68 140.85, 126.1 146.48, 114.65 149.67 C103.2 152.87, 89.85 154.45, 78 153.15 C66.16 151.84, 53.88 147.23, 43.58 141.85 C33.27 136.48, 23.06 129.28, 16.19 120.9 C9.32 112.53, 4.86 101.66, 2.38 91.58 C-0.1 81.51, -1.13 70.5, 1.31 60.46 C3.75 50.41, 9.53 39.72, 17.01 31.3 C24.49 22.87, 33.94 15.17, 46.18 9.9 C58.42 4.64, 81.71 0.96, 90.44 -0.28 C99.18 -1.52, 98.72 1.22, 98.57 2.44 M81.74 1.72 C93.18 -0.21, 107.11 2.52, 118.58 5.5 C130.05 8.48, 141.81 12.46, 150.56 19.59 C159.32 26.71, 166.56 38.47, 171.09 48.24 C175.63 58.01, 178 67.83, 177.75 78.21 C177.51 88.59, 174.97 101.22, 169.61 110.54 C164.25 119.87, 155.05 127.78, 145.6 134.14 C136.14 140.51, 124.09 145.56, 112.9 148.74 C101.72 151.93, 90.35 154.49, 78.5 153.25 C66.65 152.01, 52.27 147.03, 41.83 141.3 C31.39 135.56, 22.54 127.4, 15.86 118.85 C9.18 110.3, 4.19 99.99, 1.74 90 C-0.71 80.01, -1.65 68.91, 1.16 58.89 C3.97 48.88, 10.86 38.18, 18.58 29.91 C26.29 21.65, 36.82 14.39, 47.45 9.31 C58.08 4.23, 76.68 0.81, 82.35 -0.56 C88.02 -1.94, 81.44 -0.39, 81.47 1.07" stroke="#000000" stroke-width="1" fill="none"></path></g><g transform="translate(99.66035438019406 535.5491883820862) rotate(0 56.54999923706055 25)"><text x="56.54999923706055" y="0" font-family="Virgil, Segoe UI Emoji" font-size="20px" fill="#000000" text-anchor="middle" style="white-space: pre;" direction="ltr" dominant-baseline="text-before-edge">Postgresql </text><text x="56.54999923706055" y="25" font-family="Virgil, Segoe UI Emoji" font-size="20px" fill="#000000" text-anchor="middle" style="white-space: pre;" direction="ltr" dominant-baseline="text-before-edge">database</text></g><g transform="translate(50.00000000000023 10) rotate(0 176.51666259765625 12.5)"><text x="0" y="0" font-family="Virgil, Segoe UI Emoji" font-size="20px" fill="#000000" text-anchor="start" style="white-space: pre;" direction="ltr" dominant-baseline="text-before-edge">On localhost, on-premis, in the cloud</text></g><g stroke-linecap="round" transform="translate(618.5714285714287 91.42857142857144) rotate(0 121.5 112.99999999999997)"><path d="M152.5 28.5 M152.5 28.5 C173.76 50.52, 193.37 66.48, 212.5 85.5 M152.5 28.5 C164.73 41.21, 179.25 53.21, 212.5 85.5 M212.5 85.5 C242.6 112.9, 241.35 114.82, 212.5 142.5 M212.5 85.5 C244.45 112.17, 243.82 112.55, 212.5 142.5 M212.5 142.5 C192.98 160.75, 174.08 177.21, 152.5 197.5 M212.5 142.5 C197.8 155.32, 183.46 169.42, 152.5 197.5 M152.5 197.5 C122.13 226.86, 123.12 227.09, 91.5 197.5 M152.5 197.5 C121.99 224.21, 123.69 225.44, 91.5 197.5 M91.5 197.5 C76.17 181.31, 58.82 169.67, 30.5 142.5 M91.5 197.5 C72.47 180.07, 51.65 161.99, 30.5 142.5 M30.5 142.5 C-0.62 115.86, -1.73 114.25, 30.5 85.5 M30.5 142.5 C2.28 115.51, 1.69 114.26, 30.5 85.5 M30.5 85.5 C51.53 65.82, 71.78 49.61, 91.5 28.5 M30.5 85.5 C52.81 65.13, 74.86 44.69, 91.5 28.5 M91.5 28.5 C120.84 0.65, 122.95 -1.5, 152.5 28.5 M91.5 28.5 C121.21 -1.9, 120.93 -1.12, 152.5 28.5" stroke="#000000" stroke-width="1" fill="none"></path></g><g transform="translate(687.4714300973076 166.92857142857144) rotate(0 52.849998474121094 37.49999999999997)"><text x="52.849998474121094" y="0" font-family="Virgil, Segoe UI Emoji" font-size="20px" fill="#000000" text-anchor="middle" style="white-space: pre;" direction="ltr" dominant-baseline="text-before-edge">Device of </text><text x="52.849998474121094" y="25" font-family="Virgil, Segoe UI Emoji" font-size="20px" fill="#000000" text-anchor="middle" style="white-space: pre;" direction="ltr" dominant-baseline="text-before-edge">the </text><text x="52.849998474121094" y="50" font-family="Virgil, Segoe UI Emoji" font-size="20px" fill="#000000" text-anchor="middle" style="white-space: pre;" direction="ltr" dominant-baseline="text-before-edge">participant</text></g><g mask="url(#mask-s1MIw00_y8TzwTNzkDGfS)" stroke-linecap="round"><g transform="translate(328.57142857142867 171.44870681757078) rotate(0 150.99762757023632 -1.2768576453365768)"><path d="M-0.36 0.25 C49.64 0.08, 249.83 -0.88, 299.97 -1.17 M1.65 -0.66 C52.05 -1.15, 252.69 -2.33, 302.36 -2.81" stroke="#000000" stroke-width="1" fill="none"></path></g><g transform="translate(328.57142857142867 171.44870681757078) rotate(0 150.99762757023632 -1.2768576453365768)"><path d="M274.67 6.63 C284.2 4.41, 292.03 0.26, 303.64 -2.83 M274.33 8.33 C283.71 3.91, 295.81 -0.33, 302.59 -3.32" stroke="#000000" stroke-width="1" fill="none"></path></g><g transform="translate(328.57142857142867 171.44870681757078) rotate(0 150.99762757023632 -1.2768576453365768)"><path d="M274.51 -13.89 C284.07 -9.98, 291.95 -8, 303.64 -2.83 M274.18 -12.19 C283.63 -9.08, 295.78 -5.77, 302.59 -3.32" stroke="#000000" stroke-width="1" fill="none"></path></g></g><mask id="mask-s1MIw00_y8TzwTNzkDGfS"><rect x="0" y="0" fill="#fff" width="729.1662000240833" height="273.55051677335405"></rect><rect x="409.2521455965841" y="157.89780183967912" fill="#000" width="139.23333740234375" height="25" opacity="1"></rect></mask><g transform="translate(409.2521455965841 157.89780183967912) rotate(0 70.31691054508087 12.274047332555028)"><text x="69.61666870117188" y="0" font-family="Virgil, Segoe UI Emoji" font-size="20px" fill="#000000" text-anchor="middle" style="white-space: pre;" direction="ltr" dominant-baseline="text-before-edge">port is served</text></g><g mask="url(#mask-PMWEyHK0_2T5tZobiq6lF)" stroke-linecap="round"><g transform="translate(644.994951809893 250.6596200842153) rotate(0 -155.7444275235149 0.007883822665462503)"><path d="M-0.23 0.96 C-51.85 0.67, -259.13 -0.63, -310.94 -0.94 M-1.81 0.41 C-53.38 0.18, -259.68 0.2, -311.26 0.11" stroke="#000000" stroke-width="1" fill="none"></path></g><g transform="translate(644.994951809893 250.6596200842153) rotate(0 -155.7444275235149 0.007883822665462503)"><path d="M-281.47 -8.13 C-290.17 -6.4, -295.8 -7.75, -312.02 1.86 M-282.85 -9.97 C-289.85 -6.77, -296.77 -5.87, -310.44 -0.34" stroke="#000000" stroke-width="1" fill="none"></path></g><g transform="translate(644.994951809893 250.6596200842153) rotate(0 -155.7444275235149 0.007883822665462503)"><path d="M-281.48 12.39 C-290.32 10.01, -295.95 4.56, -312.02 1.86 M-282.87 10.55 C-290.06 8.77, -296.98 4.69, -310.44 -0.34" stroke="#000000" stroke-width="1" fill="none"></path></g></g><mask id="mask-PMWEyHK0_2T5tZobiq6lF"><rect x="0" y="0" fill="#fff" width="1057.132760762643" height="350.68233175139375"></rect><rect x="425.3927145088111" y="238.14826425062597" fill="#000" width="127.06666564941406" height="25" opacity="1"></rect></mask><g transform="translate(425.39271450881097 238.14826425062597) rotate(0 63.85780977756713 12.51923965625474)"><text x="63.53333282470703" y="0" font-family="Virgil, Segoe UI Emoji" font-size="20px" fill="#000000" text-anchor="middle" style="white-space: pre;" direction="ltr" dominant-baseline="text-before-edge">data is send</text></g><g stroke-linecap="round" transform="translate(259.57142857142867 482.0714285714287) rotate(0 89 76.5)"><path d="M81.5 1.2 C92.76 -0.84, 107.16 1.14, 118.39 4.43 C129.63 7.73, 140.15 14.06, 148.91 20.96 C157.67 27.86, 166.22 36.3, 170.95 45.82 C175.67 55.34, 177.62 67.65, 177.26 78.09 C176.91 88.53, 173.91 99.16, 168.82 108.48 C163.73 117.79, 155.74 127.12, 146.71 133.99 C137.68 140.85, 126.1 146.48, 114.65 149.67 C103.2 152.87, 89.85 154.45, 78 153.15 C66.16 151.84, 53.88 147.23, 43.58 141.85 C33.27 136.48, 23.06 129.28, 16.19 120.9 C9.32 112.53, 4.86 101.66, 2.38 91.58 C-0.1 81.51, -1.13 70.5, 1.31 60.46 C3.75 50.41, 9.53 39.72, 17.01 31.3 C24.49 22.87, 33.94 15.17, 46.18 9.9 C58.42 4.64, 81.71 0.96, 90.44 -0.28 C99.18 -1.52, 98.72 1.22, 98.57 2.44 M81.74 1.72 C93.18 -0.21, 107.11 2.52, 118.58 5.5 C130.05 8.48, 141.81 12.46, 150.56 19.59 C159.32 26.71, 166.56 38.47, 171.09 48.24 C175.63 58.01, 178 67.83, 177.75 78.21 C177.51 88.59, 174.97 101.22, 169.61 110.54 C164.25 119.87, 155.05 127.78, 145.6 134.14 C136.14 140.51, 124.09 145.56, 112.9 148.74 C101.72 151.93, 90.35 154.49, 78.5 153.25 C66.65 152.01, 52.27 147.03, 41.83 141.3 C31.39 135.56, 22.54 127.4, 15.86 118.85 C9.18 110.3, 4.19 99.99, 1.74 90 C-0.71 80.01, -1.65 68.91, 1.16 58.89 C3.97 48.88, 10.86 38.18, 18.58 29.91 C26.29 21.65, 36.82 14.39, 47.45 9.31 C58.08 4.23, 76.68 0.81, 82.35 -0.56 C88.02 -1.94, 81.44 -0.39, 81.47 1.07" stroke="#000000" stroke-width="1" fill="none"></path></g><g transform="translate(292.6722578705329 545.9777598106577) rotate(0 55.96666717529297 12.5)"><text x="55.96666717529297" y="0" font-family="Virgil, Segoe UI Emoji" font-size="20px" fill="#000000" text-anchor="middle" style="white-space: pre;" direction="ltr" dominant-baseline="text-before-edge">local folder</text></g><g stroke-linecap="round"><g transform="translate(138.57142857142867 329.99999999999994) rotate(0 0.36775881361595 72.48530355436463)"><path d="M-0.58 0.04 C-0.43 24.38, 1.19 121.48, 1.11 145.96 M1.31 -0.99 C1.39 22.97, 0.75 119.6, 0.75 143.96" stroke="#000000" stroke-width="1" fill="none"></path></g><g transform="translate(138.57142857142867 329.99999999999994) rotate(0 0.36775881361595 72.48530355436463)"><path d="M-9.34 117.59 C-5.84 122.9, -1.11 134.24, -0.92 142.13 M-8.47 115.89 C-5.39 126.36, -1.66 137.02, 0.9 143" stroke="#000000" stroke-width="1" fill="none"></path></g><g transform="translate(138.57142857142867 329.99999999999994) rotate(0 0.36775881361595 72.48530355436463)"><path d="M11.18 117.66 C8.25 122.86, 6.54 134.17, -0.92 142.13 M12.05 115.97 C7.61 126.45, 3.81 137.08, 0.9 143" stroke="#000000" stroke-width="1" fill="none"></path></g></g><mask></mask><g mask="url(#mask-8QRqOtBikXXOBtQePgCb3)" stroke-linecap="round"><g transform="translate(233.61401138848373 328.5714285714286) rotate(0 41.121666266374405 70.40219340657)"><path d="M-0.67 -0.65 C13.25 22.97, 69.08 117.84, 82.91 141.46" stroke="#000000" stroke-width="1.5" fill="none" stroke-dasharray="8 9"></path></g><g transform="translate(233.61401138848373 328.5714285714286) rotate(0 41.121666266374405 70.40219340657)"><path d="M58.7 123.48 C66.99 127.39, 72.02 133.18, 81.51 143.21" stroke="#000000" stroke-width="1.5" fill="none"></path></g><g transform="translate(233.61401138848373 328.5714285714286) rotate(0 41.121666266374405 70.40219340657)"><path d="M76.39 113.08 C80.28 119.47, 80.93 127.83, 81.51 143.21" stroke="#000000" stroke-width="1.5" fill="none"></path></g></g><mask id="mask-8QRqOtBikXXOBtQePgCb3"><rect x="0" y="0" fill="#fff" width="415.8508750969354" height="569.119197734924"></rect><rect x="183.29910889212363" y="386.34531315317633" fill="#000" width="182.86666870117188" height="25" opacity="1"></rect></mask><g transform="translate(183.29910889212363 386.3453131531762) rotate(0 91.43656876273451 12.62830882482234)"><text x="91.43333435058594" y="0" font-family="Virgil, Segoe UI Emoji" font-size="20px" fill="#000000" text-anchor="middle" style="white-space: pre;" direction="ltr" dominant-baseline="text-before-edge">only in development</text></g><g stroke-linecap="round" transform="translate(624.2142857142858 364.14285714285705) rotate(0 121.5 113)"><path d="M152.5 28.5 M152.5 28.5 C173.76 50.52, 193.37 66.48, 212.5 85.5 M152.5 28.5 C164.73 41.21, 179.25 53.21, 212.5 85.5 M212.5 85.5 C242.6 112.9, 241.35 114.82, 212.5 142.5 M212.5 85.5 C244.45 112.17, 243.82 112.55, 212.5 142.5 M212.5 142.5 C192.98 160.75, 174.08 177.21, 152.5 197.5 M212.5 142.5 C197.8 155.32, 183.46 169.42, 152.5 197.5 M152.5 197.5 C122.13 226.86, 123.12 227.09, 91.5 197.5 M152.5 197.5 C121.99 224.21, 123.69 225.44, 91.5 197.5 M91.5 197.5 C76.17 181.31, 58.82 169.67, 30.5 142.5 M91.5 197.5 C72.47 180.07, 51.65 161.99, 30.5 142.5 M30.5 142.5 C-0.62 115.86, -1.73 114.25, 30.5 85.5 M30.5 142.5 C2.28 115.51, 1.69 114.26, 30.5 85.5 M30.5 85.5 C51.53 65.82, 71.78 49.61, 91.5 28.5 M30.5 85.5 C52.81 65.13, 74.86 44.69, 91.5 28.5 M91.5 28.5 C120.84 0.65, 122.95 -1.5, 152.5 28.5 M91.5 28.5 C121.21 -1.9, 120.93 -1.12, 152.5 28.5" stroke="#000000" stroke-width="1" fill="none"></path></g><g transform="translate(692.1309536525182 464.64285714285705) rotate(0 53.83333206176758 12.5)"><text x="53.83333206176758" y="0" font-family="Virgil, Segoe UI Emoji" font-size="20px" fill="#000000" text-anchor="middle" style="white-space: pre;" direction="ltr" dominant-baseline="text-before-edge">Researcher</text></g><g mask="url(#mask-B5j_JlXblrnHo2Bx1W9yp)" stroke-linecap="round"><g transform="translate(334.28571428571445 287.14285714285717) rotate(0 159.32269919328388 70.26536813996734)"><path d="M-0.99 0.08 C52.34 23.26, 265.98 116.5, 319.64 139.94 M0.69 -0.92 C53.87 22.39, 265.16 118.16, 318.5 141.45" stroke="#000000" stroke-width="1" fill="none"></path></g><g transform="translate(334.28571428571445 287.14285714285717) rotate(0 159.32269919328388 70.26536813996734)"><path d="M288.71 138.73 C296.54 141.73, 305.96 142.09, 320.4 141.5 M287.6 138.39 C297.37 138.91, 306.68 141.25, 319.19 142.23" stroke="#000000" stroke-width="1" fill="none"></path></g><g transform="translate(334.28571428571445 287.14285714285717) rotate(0 159.32269919328388 70.26536813996734)"><path d="M297.06 119.99 C302.79 127.96, 309.95 133.36, 320.4 141.5 M295.95 119.65 C303.25 126, 309.98 134.14, 319.19 142.23" stroke="#000000" stroke-width="1" fill="none"></path></g></g><mask id="mask-B5j_JlXblrnHo2Bx1W9yp"><rect x="0" y="0" fill="#fff" width="754.2857142857144" height="527.1428571428571"></rect><rect x="389.38571275983554" y="332.1428571428571" fill="#000" width="209.8000030517578" height="50" opacity="1"></rect></mask><g transform="translate(389.38571275983554 332.1428571428571) rotate(0 104.22270071916279 25.265368139967336)"><text x="104.9000015258789" y="0" font-family="Virgil, Segoe UI Emoji" font-size="20px" fill="#000000" text-anchor="middle" style="white-space: pre;" direction="ltr" dominant-baseline="text-before-edge">can login and export </text><text x="104.9000015258789" y="25" font-family="Virgil, Segoe UI Emoji" font-size="20px" fill="#000000" text-anchor="middle" style="white-space: pre;" direction="ltr" dominant-baseline="text-before-edge">data</text></g><g transform="translate(118.57142857142867 295.7142857142857) rotate(0 67.30000305175781 12.5)"><text x="0" y="0" font-family="Virgil, Segoe UI Emoji" font-size="20px" fill="#000000" text-anchor="start" style="white-space: pre;" direction="ltr" dominant-baseline="text-before-edge">data goes to</text></g></svg>